<?xml version="1.0" encoding="utf-8"?>
<!-- Generator: Adobe Illustrator 16.0.3, SVG Export Plug-In . SVG Version: 6.00 Build 0)  -->
<!DOCTYPE svg PUBLIC "-//W3C//DTD SVG 1.1//EN" "http://www.w3.org/Graphics/SVG/1.1/DTD/svg11.dtd">
<svg version="1.1" id="Layer_1" xmlns="http://www.w3.org/2000/svg" xmlns:xlink="http://www.w3.org/1999/xlink" x="0px" y="0px"
	 width="960.217px" height="186.491px" viewBox="0 0 960.217 186.491" enable-background="new 0 0 960.217 186.491"
	 xml:space="preserve">
<g>
	<path fill-rule="evenodd" clip-rule="evenodd" fill="#1972A4" d="M480.118,192.118c-158,0-315.999-0.03-473.999,0.134
		c-5.17,0.006-6.133-1.376-6.119-6.26C0.179,125.826,0.163,65.659,0.018,5.493C0.007,1.24,0.827-0.002,5.368,0
		c316.5,0.128,633,0.128,949.499,0c4.537-0.002,5.361,1.235,5.351,5.492c-0.146,60.332-0.146,120.666,0,180.999
		c0.01,4.414-0.916,5.745-5.6,5.741C796.452,192.095,638.284,192.118,480.118,192.118z M494.797,99.503c0.019,0,0.037,0,0.055,0.001
		c0-5.91-0.004-11.819,0.002-17.729c0.01-10.004,0.013-10.004-10.092-11.939c-21.008-4.023-35.49,8.953-33.643,30.145
		c1.252,14.373,13.117,23.753,25.037,19.692c1.639-0.559,4.348-0.961,4.338-2.75c-0.014-2.22-2.445-3.245-4.588-3.826
		c-0.639-0.174-1.313-0.429-1.95-0.378c-6.713,0.534-9.46-3.627-11.074-9.215c-1.621-5.608-1.441-11.25,0.312-16.705
		c2.496-7.771,12.034-11.85,19.624-8.925c1.695,0.653,1.84,1.627,1.83,3.003c-0.106,14.317-0.03,28.641-0.403,42.951
		c-0.16,6.151-3.93,9.858-9.856,11.619c-5.49,1.632-10.532-0.016-15.537-1.727c-2.241-0.766-2.891-0.462-3.992,1.75
		c-1.785,3.59-1.217,5.494,2.63,6.399c3.064,0.72,6.106,1.705,9.215,2.031c17.174,1.799,27.412-7.012,28.051-24.19
		C495.006,112.984,494.797,106.24,494.797,99.503z M181.021,121.144c4.924,0.219,9.596-0.777,14.025-2.881
		c10.612-5.039,13.562-18.359,6.043-27.337c-3.252-3.883-7.369-6.62-11.816-8.993c-4.084-2.18-8.091-4.542-11.942-7.108
		c-4.033-2.688-5.579-6.702-4.048-11.312c1.491-4.489,5.266-6.155,9.773-6.389c4.032-0.208,7.944,0.581,11.809,1.546
		c4.143,1.033,3.333-2.615,4.418-4.469c1.603-2.736-0.974-2.632-2.267-2.982c-5.644-1.53-11.391-2.622-17.267-1.957
		c-5.817,0.658-11.021,2.747-14.388,7.868c-5.924,9.01-3.109,19.326,7.255,25.926c5.165,3.29,10.801,5.843,15.942,9.166
		c5.31,3.433,7.004,7.843,5.67,12.687c-1.292,4.693-5.804,7.87-11.851,8.181c-5.227,0.269-10.29-0.794-15.122-2.648
		c-2.036-0.782-3.449-1.3-3.977,1.374c-0.418,2.114-2.94,4.508,1.207,5.97C169.871,119.682,175.347,120.836,181.021,121.144z
		 M353.68,114.222c0.756,1.595,1.24,3.051,2.069,4.272c1.899,2.796,4.868,1.311,7.384,1.585c1.277,0.14,1.651-0.599,1.426-1.867
		c-1.958-11.052-0.051-22.287-1.494-33.351c-0.904-6.933-4.534-12.145-11.348-14.462c-6.893-2.345-13.808-1.503-20.545,0.858
		c-1.521,0.533-3.873,1.032-2.296,3.742c1.02,1.755,0.632,5.106,4.47,3.323c1.61-0.749,3.544-0.868,5.353-1.109
		c9.169-1.226,14,2.715,14.458,11.926c0.206,4.154-0.208,8.355,0.202,12.481c0.496,4.982-1.982,7.734-6.003,9.751
		c-3.407,1.708-6.892,2.807-10.387,0.455c-2.375-1.599-3.47-3.922-2.904-6.906c0.842-4.438,4.334-5.457,7.966-6.347
		c0.485-0.119,0.961-0.274,1.449-0.383c3.923-0.875,5.68-3.379,5.865-7.563c-6.608,0.842-12.802,1.688-18.566,4.526
		c-5.016,2.471-7.485,6.517-7.449,11.966c0.036,5.444,2.7,9.489,7.491,12.063C338.028,123.059,345.322,121.516,353.68,114.222z
		 M683.668,119.702c-0.225-2.04-0.537-3.844-0.604-5.656c-0.345-9.469-0.316-18.963-1.022-28.403
		c-0.688-9.2-6.375-14.903-15.406-16.248c-5.52-0.821-10.963-0.152-16.196,1.777c-1.729,0.638-4.075,1.044-2.524,4.052
		c1.035,2.005,1.117,4.755,4.645,3.061c1.451-0.696,3.22-0.782,4.861-1.026c9.381-1.396,14.328,2.61,14.756,12.099
		c0.197,4.323-0.174,8.681,0.178,12.984c0.334,4.129-1.666,6.564-4.885,8.405c-3.56,2.035-7.281,3.655-11.264,1.225
		c-2.643-1.614-3.797-4.114-3.105-7.264c1.018-4.632,4.871-5.473,8.633-6.277c4.086-0.873,6.434-3.117,6.616-7.429
		c-6.21,0.153-13.214,1.594-17.433,3.567c-6.453,3.019-9.408,7.965-8.516,14.261c0.866,6.128,5.848,11.053,12.299,12.049
		c7.121,1.098,13.085-1.113,18.064-7.148C673.97,120.566,678.281,120.853,683.668,119.702z M530.09,96.123
		c8.55,0,16.527-0.009,24.505,0.007c1.554,0.003,2.776-0.061,3.46-1.974c3.967-11.074-4.16-23.898-15.934-24.961
		c-13.9-1.254-24.363,7.787-25.834,22.319c-1.516,14.968,7.328,27.817,20.434,29.452c5.703,0.712,11.218-0.495,16.643-2.288
		c3.096-1.022,3.884-2.418,2.785-5.771c-1.201-3.67-3.021-2.442-5.23-1.688c-5.945,2.033-11.846,3.309-17.596-0.727
		c-8.379-5.88-9.473-23.556-1.781-30.314c3.22-2.83,6.826-3.984,11.027-2.271c3.815,1.556,7.834,7.663,6.397,10.748
		c-1.545,3.316-5.001,0.705-7.499,1.42c-0.77,0.22-1.66,0.093-2.486,0.024C534.79,89.756,532.086,91.719,530.09,96.123z
		 M768.997,96.124c8.133,0,15.453,0,22.774,0c0.5,0,0.999-0.004,1.498,0c1.676,0.013,3.125,0.118,3.831-2.137
		c2.625-8.36-1.326-18.507-9.061-22.675c-7.862-4.237-18.967-2.486-25.718,4.359c-7.849,7.958-8.463,17.782-5.907,27.853
		c2.29,9.021,8.277,14.986,17.533,17.084c6.36,1.441,12.482-0.086,18.58-1.979c3.482-1.08,3.462-2.826,2.549-5.877
		c-1.162-3.884-3.283-2.142-5.318-1.464c-5.458,1.816-10.924,3.115-16.318-0.087c-9.121-5.413-10.985-23.638-3.161-30.828
		c3.479-3.195,7.53-4.392,11.913-2.237c4.12,2.027,6.368,6,5.666,10.208c-0.62,3.708-4.663,1.011-7.068,1.722
		c-0.918,0.271-1.988,0.109-2.981,0.033C773.585,89.775,771.061,91.936,768.997,96.124z M582.28,85.281
		c0,9.984,0.271,19.98-0.121,29.95c-0.18,4.55,1.609,5.052,5.43,5.016c3.709-0.035,5.576-0.318,5.492-4.952
		c-0.314-17.468,0.016-34.947-0.23-52.418c-0.057-4.066,1.21-4.991,5.008-4.837c7.145,0.291,14.314-0.101,21.461,0.164
		c3.402,0.126,3.674-1.391,3.723-4.139c0.053-2.919-0.582-4.093-3.827-4.032c-10.979,0.203-21.969,0.221-32.948-0.007
		c-3.471-0.071-4.096,1.213-4.047,4.302C582.381,64.644,582.281,74.963,582.28,85.281z M239.947,80.104
		c-0.122-0.001-0.244-0.001-0.366-0.001c0-5.986,0-11.973,0-17.958c0-7.727-0.364-7.883-7.441-4.702
		c-3.614,1.625-1.97,4.641-1.896,6.914c0.131,3.985-0.573,6.74-5.134,7.102c-2.739,0.217-4.175,1.484-3.86,4.53
		c0.361,3.487,3,2.145,4.536,2.025c3.498-0.271,4.556,0.861,4.409,4.397c-0.289,6.972-0.158,13.965-0.069,20.947
		c0.173,13.595,10.381,20.925,23.292,16.654c1.581-0.522,4.596-0.254,3.141-3.998c-1.096-2.819-1.609-4.471-5.343-3.484
		c-6.744,1.781-10.796-1.076-11.167-8.021C239.614,96.396,239.947,88.241,239.947,80.104z M718.948,80.141
		c-0.121,0-0.244,0-0.367-0.001c0-7.149-0.146-14.304,0.066-21.447c0.1-3.307-0.959-3.18-3.701-2.582
		c-4.738,1.033-6.706,3.413-5.855,8.218c0.695,3.926-0.374,6.741-4.945,7.121c-2.703,0.225-4.198,1.426-3.9,4.503
		c0.336,3.504,2.961,2.18,4.506,2.065c3.439-0.255,4.6,0.771,4.447,4.358c-0.297,6.971-0.156,13.964-0.072,20.946
		c0.166,13.597,10.359,20.952,23.258,16.7c1.566-0.517,4.643-0.226,3.183-3.971c-1.076-2.761-1.523-4.539-5.313-3.531
		c-6.762,1.799-10.83-1.054-11.203-7.974C718.614,96.433,718.948,88.278,718.948,80.141z M429.115,99.953
		c0-5.65,0.155-11.307-0.034-16.95c-0.328-9.802-8.142-15.743-17.683-13.525c-2.238,0.52-4.443,1.311-6.546,2.24
		c-1.442,0.638-3.846,1.001-3.664,2.854c0.179,1.827,2.332,2.744,4.124,3.154c1.236,0.283,2.627,0.15,3.906-0.06
		c7.408-1.212,9.516,0.56,9.546,8.312c0.041,10.304,0.146,20.61-0.046,30.911c-0.091,4.881,3.323,3.031,5.509,3.146
		c2.143,0.112,5.19,1.325,4.958-3.134C428.894,111.267,429.116,105.604,429.115,99.953z M278.611,70.539
		c2.242,14.895,1.139,29.889,1.256,44.847c0.025,3.193,0.233,5.244,4.47,4.879c3.36-0.289,5.562-0.195,5.247-4.698
		c-0.441-6.301-0.129-12.655-0.107-18.986c0.044-12.933,2.604-15.933,15.153-18.286c3.288-0.616,2.002-3.658,2.474-5.708
		c0.596-2.589-1.183-2.373-2.92-2.509c-6.692-0.522-10.9,3.44-14.704,8.373C286.559,69.492,286.559,69.492,278.611,70.539z
		 M387.281,95.421c0,7.818,0.271,14.31-0.097,20.765c-0.238,4.159,1.965,4.277,4.839,3.915c2.51-0.315,6.163,1.727,6.022-3.726
		c-0.298-11.616-0.003-23.246-0.147-34.868c-0.042-3.44-0.417-6.945-2.707-9.874c-2.217-2.836-5.214-1.187-7.856-1.394
		c-1.4-0.11-1.272,1.254-1.046,2.212C388.187,80.494,386.807,88.666,387.281,95.421z M596.829,87.116
		c6.533,0,12.488-0.141,18.432,0.058c3.061,0.103,4.363-0.552,4.33-4.014c-0.032-3.313-1.031-4.377-4.244-4.094
		c-2.799,0.247-5.638,0.119-8.455,0.037C601.698,78.952,598.546,81.43,596.829,87.116z M243.3,70.11
		c1.607,4.604,3.424,8.102,8.553,8.002c2.437-0.048,5.098,1.022,5.062-3.606c-0.032-4.126-1.526-4.7-4.894-4.438
		C249.279,70.28,246.505,70.11,243.3,70.11z M722.599,70.112c0.082,2.834,1.565,4.781,3.133,6.288
		c2.469,2.373,5.934,2.207,8.932,1.477c2.268-0.552,0.78-3.104,1.087-4.73c0.456-2.418-0.833-3.161-3.126-3.068
		C729.347,70.211,726.06,70.112,722.599,70.112z"/>
	<path fill-rule="evenodd" clip-rule="evenodd" fill="#FAFCFD" d="M494.797,99.503c0,6.737,0.209,13.481-0.041,20.208
		c-0.639,17.179-10.877,25.989-28.051,24.19c-3.109-0.326-6.151-1.312-9.215-2.031c-3.848-0.905-4.416-2.81-2.63-6.399
		c1.101-2.212,1.751-2.516,3.992-1.75c5.005,1.711,10.046,3.358,15.537,1.727c5.927-1.761,9.696-5.468,9.856-11.619
		c0.373-14.311,0.297-28.634,0.403-42.951c0.01-1.376-0.135-2.35-1.83-3.003c-7.59-2.925-17.127,1.153-19.624,8.925
		c-1.753,5.455-1.933,11.097-0.312,16.705c1.614,5.588,4.361,9.749,11.074,9.215c0.637-0.051,1.311,0.204,1.95,0.378
		c2.143,0.581,4.575,1.606,4.588,3.826c0.01,1.789-2.699,2.191-4.338,2.75c-11.92,4.061-23.785-5.319-25.037-19.692
		c-1.847-21.191,12.635-34.168,33.643-30.145c10.104,1.936,10.102,1.936,10.092,11.939c-0.006,5.909-0.002,11.818-0.002,17.729
		C494.834,99.503,494.816,99.503,494.797,99.503z"/>
	<path fill-rule="evenodd" clip-rule="evenodd" fill="#FAFCFD" d="M181.021,121.144c-5.674-0.308-11.15-1.462-16.536-3.359
		c-4.147-1.462-1.625-3.855-1.207-5.97c0.528-2.674,1.941-2.156,3.977-1.374c4.832,1.854,9.895,2.917,15.122,2.648
		c6.047-0.311,10.56-3.487,11.851-8.181c1.333-4.844-0.36-9.254-5.67-12.687c-5.141-3.323-10.777-5.876-15.942-9.166
		c-10.364-6.6-13.179-16.916-7.255-25.926c3.367-5.121,8.571-7.21,14.388-7.868c5.876-0.665,11.623,0.427,17.267,1.957
		c1.293,0.351,3.87,0.246,2.267,2.982c-1.085,1.854-0.275,5.502-4.418,4.469c-3.865-0.965-7.777-1.754-11.809-1.546
		c-4.507,0.233-8.282,1.899-9.773,6.389c-1.531,4.609,0.015,8.623,4.048,11.312c3.851,2.566,7.858,4.929,11.942,7.108
		c4.448,2.373,8.564,5.11,11.816,8.993c7.519,8.978,4.569,22.298-6.043,27.337C190.617,120.366,185.945,121.362,181.021,121.144z"/>
	<path fill-rule="evenodd" clip-rule="evenodd" fill="#FAFCFD" d="M353.68,114.222c-8.358,7.294-15.652,8.837-22.86,4.962
		c-4.791-2.574-7.455-6.619-7.491-12.063c-0.036-5.449,2.433-9.495,7.449-11.966c5.764-2.839,11.958-3.685,18.566-4.526
		c-0.186,4.185-1.942,6.688-5.865,7.563c-0.487,0.108-0.963,0.264-1.449,0.383c-3.631,0.89-7.124,1.909-7.966,6.347
		c-0.566,2.984,0.528,5.308,2.904,6.906c3.495,2.352,6.979,1.253,10.387-0.455c4.021-2.017,6.5-4.769,6.003-9.751
		c-0.411-4.126,0.004-8.327-0.202-12.481c-0.458-9.211-5.289-13.151-14.458-11.926c-1.809,0.241-3.743,0.36-5.353,1.109
		c-3.837,1.783-3.45-1.568-4.47-3.323c-1.576-2.71,0.776-3.209,2.296-3.742c6.737-2.361,13.652-3.203,20.545-0.858
		c6.814,2.317,10.444,7.529,11.348,14.462c1.443,11.063-0.464,22.299,1.494,33.351c0.225,1.269-0.148,2.007-1.426,1.867
		c-2.516-0.274-5.485,1.211-7.384-1.585C354.92,117.272,354.437,115.816,353.68,114.222z"/>
	<path fill-rule="evenodd" clip-rule="evenodd" fill="#FAFCFD" d="M683.668,119.702c-5.388,1.15-9.698,0.864-10.904-5.973
		c-4.979,6.035-10.943,8.246-18.064,7.148c-6.451-0.996-11.433-5.921-12.299-12.049c-0.893-6.296,2.063-11.242,8.516-14.261
		c4.219-1.974,11.223-3.414,17.433-3.567c-0.183,4.312-2.53,6.556-6.616,7.429c-3.762,0.805-7.615,1.646-8.633,6.277
		c-0.691,3.149,0.463,5.649,3.105,7.264c3.982,2.431,7.704,0.811,11.264-1.225c3.219-1.841,5.219-4.276,4.885-8.405
		c-0.352-4.304,0.02-8.661-0.178-12.984c-0.428-9.488-5.375-13.494-14.756-12.099c-1.642,0.244-3.41,0.33-4.861,1.026
		c-3.527,1.694-3.609-1.056-4.645-3.061c-1.551-3.008,0.795-3.414,2.524-4.052c5.233-1.93,10.677-2.599,16.196-1.777
		c9.031,1.345,14.719,7.048,15.406,16.248c0.706,9.44,0.678,18.935,1.022,28.403C683.131,115.858,683.444,117.662,683.668,119.702z"
		/>
	<path fill-rule="evenodd" clip-rule="evenodd" fill="#FAFCFD" d="M530.09,96.123c1.996-4.404,4.699-6.367,8.891-6.022
		c0.826,0.068,1.717,0.195,2.486-0.024c2.498-0.715,5.954,1.896,7.499-1.42c1.437-3.085-2.582-9.192-6.397-10.748
		c-4.201-1.713-7.808-0.559-11.027,2.271c-7.691,6.759-6.598,24.435,1.781,30.314c5.75,4.035,11.65,2.76,17.596,0.727
		c2.209-0.755,4.029-1.982,5.23,1.688c1.099,3.353,0.311,4.748-2.785,5.771c-5.425,1.793-10.939,3-16.643,2.288
		c-13.105-1.635-21.949-14.484-20.434-29.452c1.471-14.532,11.934-23.573,25.834-22.319c11.773,1.063,19.9,13.887,15.934,24.961
		c-0.684,1.913-1.906,1.977-3.46,1.974C546.618,96.114,538.64,96.123,530.09,96.123z"/>
	<path fill-rule="evenodd" clip-rule="evenodd" fill="#FAFCFD" d="M768.997,96.124c2.064-4.188,4.589-6.349,8.812-6.024
		c0.993,0.076,2.063,0.238,2.981-0.033c2.405-0.711,6.448,1.986,7.068-1.722c0.702-4.208-1.546-8.181-5.666-10.208
		c-4.383-2.154-8.435-0.958-11.913,2.237c-7.824,7.19-5.96,25.415,3.161,30.828c5.395,3.202,10.86,1.903,16.318,0.087
		c2.035-0.678,4.156-2.42,5.318,1.464c0.913,3.051,0.934,4.797-2.549,5.877c-6.098,1.893-12.22,3.42-18.58,1.979
		c-9.256-2.098-15.243-8.063-17.533-17.084c-2.556-10.07-1.941-19.895,5.907-27.853c6.751-6.846,17.855-8.597,25.718-4.359
		c7.734,4.168,11.686,14.314,9.061,22.675c-0.706,2.255-2.155,2.149-3.831,2.137c-0.499-0.004-0.998,0-1.498,0
		C784.45,96.124,777.129,96.124,768.997,96.124z"/>
	<path fill-rule="evenodd" clip-rule="evenodd" fill="#FAFCFD" d="M582.28,85.281c0.001-10.318,0.102-20.638-0.061-30.953
		c-0.049-3.089,0.576-4.373,4.047-4.302c10.979,0.228,21.969,0.21,32.948,0.007c3.245-0.061,3.88,1.113,3.827,4.032
		c-0.049,2.748-0.32,4.265-3.723,4.139c-7.146-0.265-14.316,0.127-21.461-0.164c-3.798-0.154-5.064,0.771-5.008,4.837
		c0.246,17.471-0.084,34.95,0.23,52.418c0.084,4.634-1.783,4.917-5.492,4.952c-3.82,0.036-5.609-0.466-5.43-5.016
		C582.551,105.262,582.28,95.266,582.28,85.281z"/>
	<path fill-rule="evenodd" clip-rule="evenodd" fill="#FAFCFD" d="M239.947,80.104c0,8.137-0.333,16.292,0.102,24.405
		c0.372,6.945,4.423,9.803,11.167,8.021c3.734-0.986,4.247,0.665,5.343,3.484c1.455,3.744-1.56,3.476-3.141,3.998
		c-12.912,4.271-23.119-3.06-23.292-16.654c-0.088-6.982-0.22-13.976,0.069-20.947c0.146-3.536-0.911-4.669-4.409-4.397
		c-1.536,0.119-4.175,1.462-4.536-2.025c-0.315-3.046,1.121-4.313,3.86-4.53c4.561-0.361,5.266-3.116,5.134-7.102
		c-0.075-2.273-1.719-5.289,1.896-6.914c7.078-3.181,7.441-3.024,7.441,4.702c0,5.985,0,11.972,0,17.958
		C239.704,80.104,239.825,80.104,239.947,80.104z"/>
	<path fill-rule="evenodd" clip-rule="evenodd" fill="#FAFCFD" d="M718.948,80.141c0,8.138-0.334,16.292,0.102,24.406
		c0.373,6.92,4.441,9.772,11.203,7.974c3.79-1.008,4.237,0.771,5.313,3.531c1.46,3.745-1.616,3.454-3.183,3.971
		c-12.898,4.252-23.092-3.104-23.258-16.7c-0.084-6.982-0.225-13.976,0.072-20.946c0.152-3.588-1.008-4.613-4.447-4.358
		c-1.545,0.114-4.17,1.438-4.506-2.065c-0.298-3.077,1.197-4.278,3.9-4.503c4.571-0.38,5.641-3.195,4.945-7.121
		c-0.851-4.805,1.117-7.185,5.855-8.218c2.742-0.598,3.801-0.725,3.701,2.582c-0.213,7.144-0.066,14.298-0.066,21.447
		C718.704,80.141,718.827,80.141,718.948,80.141z"/>
	<path fill-rule="evenodd" clip-rule="evenodd" fill="#FEFEFE" d="M429.115,99.953c0.001,5.651-0.221,11.313,0.071,16.948
		c0.231,4.459-2.815,3.246-4.958,3.134c-2.186-0.114-5.6,1.735-5.509-3.146c0.192-10.301,0.086-20.607,0.046-30.911
		c-0.031-7.752-2.139-9.523-9.546-8.312c-1.279,0.21-2.67,0.343-3.906,0.06c-1.792-0.41-3.944-1.327-4.124-3.154
		c-0.182-1.854,2.221-2.217,3.664-2.854c2.104-0.93,4.308-1.721,6.546-2.24c9.541-2.218,17.354,3.724,17.683,13.525
		C429.27,88.646,429.115,94.303,429.115,99.953z"/>
	<path fill-rule="evenodd" clip-rule="evenodd" fill="#FAFCFD" d="M278.611,70.539c7.948-1.047,7.948-1.047,10.868,7.911
		c3.804-4.933,8.012-8.896,14.704-8.373c1.738,0.136,3.517-0.08,2.92,2.509c-0.472,2.05,0.814,5.092-2.474,5.708
		c-12.548,2.354-15.108,5.354-15.153,18.286c-0.022,6.331-0.334,12.686,0.107,18.986c0.315,4.503-1.886,4.409-5.247,4.698
		c-4.236,0.365-4.444-1.686-4.47-4.879C279.75,100.428,280.853,85.434,278.611,70.539z"/>
	<path fill-rule="evenodd" clip-rule="evenodd" fill="#FAFCFD" d="M387.281,95.421c-0.474-6.755,0.906-14.927-0.99-22.97
		c-0.226-0.958-0.354-2.322,1.046-2.212c2.642,0.207,5.639-1.442,7.856,1.394c2.29,2.929,2.664,6.434,2.707,9.874
		c0.144,11.622-0.151,23.252,0.147,34.868c0.14,5.452-3.512,3.41-6.022,3.726c-2.874,0.362-5.077,0.244-4.839-3.915
		C387.551,109.73,387.281,103.239,387.281,95.421z"/>
	<path fill-rule="evenodd" clip-rule="evenodd" fill="#FEFEFE" d="M596.829,87.116c1.718-5.687,4.869-8.164,10.063-8.013
		c2.817,0.082,5.656,0.21,8.455-0.037c3.213-0.283,4.212,0.781,4.244,4.094c0.033,3.462-1.27,4.116-4.33,4.014
		C609.317,86.976,603.362,87.116,596.829,87.116z"/>
	<path fill-rule="evenodd" clip-rule="evenodd" fill="#FAFCFD" d="M243.3,70.11c3.205,0,5.979,0.17,8.721-0.043
		c3.368-0.262,4.862,0.313,4.894,4.438c0.036,4.629-2.625,3.559-5.062,3.606C246.724,78.212,244.908,74.715,243.3,70.11z"/>
	<path fill-rule="evenodd" clip-rule="evenodd" fill="#FAFCFD" d="M722.599,70.112c3.461,0,6.748,0.099,10.025-0.034
		c2.293-0.093,3.582,0.65,3.126,3.068c-0.307,1.626,1.181,4.179-1.087,4.73c-2.998,0.73-6.463,0.896-8.932-1.477
		C724.165,74.894,722.681,72.946,722.599,70.112z"/>
</g>
</svg>
